<?xml version="1.0" encoding="UTF-8"?>
<svg width="134px" height="38px" viewBox="0 0 134 38" version="1.1" xmlns="http://www.w3.org/2000/svg" xmlns:xlink="http://www.w3.org/1999/xlink">
    <!-- Generator: Sketch 54.1 (76490) - https://sketchapp.com -->
    <title>登录页logo_FESCO@1x</title>
    <desc>Created with Sketch.</desc>
    <defs>
        <polygon id="path-1" points="0.0796782609 0.220669565 27.9973913 0.220669565 27.9973913 28.1386696 0.0796782609 28.1386696"></polygon>
        <polygon id="path-3" points="0.435169565 0.1419 22.1353 0.1419 22.1353 28.2173913 0.435169565 28.2173913"></polygon>
    </defs>
    <g id="登录页logo_FESCO" stroke="none" stroke-width="1" fill="none" fill-rule="evenodd">
        <g>
            <g>
                <g id="Group" opacity="0.25">
                    <rect id="Rectangle-path" x="0" y="0" width="134" height="38"></rect>
                </g>
                <g id="编组" transform="translate(4.000000, 4.000000)">
                    <g transform="translate(97.565217, 0.336457)">
                        <mask id="mask-2" fill="white">
                            <use xlink:href="#path-1"></use>
                        </mask>
                        <g id="Clip-2"></g>
                        <path d="M14.0386783,23.8515391 C8.7055913,23.8515391 4.36633043,19.5132348 4.36633043,14.1796696 C4.36633043,8.84658261 8.7055913,4.50732174 14.0386783,4.50732174 C19.371287,4.50732174 23.7105478,8.84658261 23.7105478,14.1796696 C23.7105478,19.5132348 19.371287,23.8515391 14.0386783,23.8515391 M14.0386783,0.220669565 C7.44728696,0.220669565 1.69763478,4.89949565 0.368547826,11.3454957 C0.176765217,12.2714087 0.0796782609,13.2250609 0.0796782609,14.1796696 C0.0796782609,15.1338 0.176765217,16.0874522 0.368547826,17.0138435 C1.69763478,23.4603217 7.44728696,28.1386696 14.0386783,28.1386696 C21.7358087,28.1386696 27.9976783,21.8768 27.9976783,14.1796696 C27.9976783,6.48301739 21.7358087,0.220669565 14.0386783,0.220669565" id="Fill-1" fill="#E50113" mask="url(#mask-2)"></path>
                    </g>
                    <path d="M85.5330826,28.4750783 C89.3414739,28.4750783 93.0231261,26.8949043 95.646387,24.1367739 L92.6132565,21.1036435 C90.7920391,23.0649913 88.2166043,24.1879478 85.5330826,24.1879478 C80.2004739,24.1879478 75.861213,19.8496435 75.861213,14.5160783 C75.861213,9.18346957 80.2004739,4.84373043 85.5330826,4.84373043 C88.2166043,4.84373043 90.7920391,5.96716522 92.6132565,7.92851304 L95.646387,4.89586087 C93.0231261,2.13725217 89.3414739,0.557078261 85.5330826,0.557078261 C77.8359522,0.557078261 71.5740826,6.81942609 71.5740826,14.5160783 C71.5740826,22.2132087 77.8359522,28.4750783 85.5330826,28.4750783" id="Fill-3" fill="#E50113"></path>
                    <g transform="translate(46.391304, 0.336457)">
                        <mask id="mask-4" fill="white">
                            <use xlink:href="#path-3"></use>
                        </mask>
                        <g id="Clip-6"></g>
                        <path d="M12.4376043,12.2567261 C12.028213,12.1586826 11.6341261,12.0649435 11.2496043,11.9697696 C7.80038696,11.139987 5.16182174,10.3073348 5.16182174,7.82324783 C5.16182174,5.44485652 7.44408261,4.34916087 11.4241696,4.34916087 C14.1669957,4.34916087 17.1642565,5.19185652 19.4608652,6.60463913 L21.1022565,2.61785652 C18.6712565,1.08933478 14.9714304,0.1419 11.4241696,0.1419 C4.74860435,0.1419 0.435169565,3.29603043 0.435169565,8.17763913 C0.435169565,13.7981609 5.58843043,15.0249 10.1352565,16.1057696 L10.1959957,16.1205957 C10.5790826,16.2114652 10.9559522,16.3018565 11.3246913,16.3927261 C14.7734304,17.2225087 17.4115174,18.0556391 17.4115174,20.5392478 C17.4115174,22.9181174 15.1292565,24.0133348 11.1496478,24.0133348 C7.96682174,24.0133348 4.43247391,22.8607261 2.11195217,21.0715522 L0.469604348,25.0239 C2.75903913,26.935987 7.03995217,28.2177261 11.1496478,28.2177261 C17.8237783,28.2177261 22.1353,25.0650304 22.1353,20.1853348 C22.1353,14.5633783 16.9834739,13.3380739 12.4376043,12.2567261" id="Fill-5" fill="#E50113" mask="url(#mask-4)"></path>
                    </g>
                    <polygon id="Fill-7" fill="#E50113" points="42.2885435 5.39664783 42.2885435 1.10951739 23.5665435 1.10951739 23.5665435 27.923213 42.2885435 27.923213 42.2885435 23.6360826 27.8527174 23.6360826 27.8527174 16.6596913 40.6691522 16.6596913 40.6691522 12.3725609 27.8527174 12.3725609 27.8527174 5.39664783"></polygon>
                    <polygon id="Fill-9" fill="#E50113" points="17.1023217 12.372513 4.28636522 12.372513 4.28636522 5.3966 18.7221913 5.3966 18.7221913 1.10946957 0.000191304348 1.10946957 0.000191304348 27.9231652 4.28636522 27.9231652 4.28636522 16.6596435 17.1023217 16.6596435"></polygon>
                </g>
            </g>
        </g>
    </g>
</svg>