<?xml version="1.0" encoding="UTF-8"?>
<svg width="81px" height="32px" viewBox="0 0 81 32" version="1.1" xmlns="http://www.w3.org/2000/svg" xmlns:xlink="http://www.w3.org/1999/xlink">
    <!-- Generator: Sketch 54.1 (76490) - https://sketchapp.com -->
    <title>logo_HCM</title>
    <desc>Created with Sketch.</desc>
    <g id="logo_HCM" stroke="none" stroke-width="1" fill="none" fill-rule="evenodd">
        <g>
            <rect id="Rectangle-path" x="0" y="0" width="81" height="32"></rect>
            <g id="Group-12" transform="translate(6.000000, 4.000000)" fill="#00B6A4" fill-rule="nonzero">
                <g id="Group-2">
                    <path d="M0.6,22.9 L0.6,1.1 C0.6,0.8 0.9,0.5 1.2,0.5 L4.8,0.5 C5.1,0.5 5.4,0.8 5.4,1.1 L5.4,8.7 C5.4,9 5.7,9.3 6,9.3 L13.7,9.3 C14,9.3 14.3,9 14.3,8.7 L14.3,1.1 C14.3,0.8 14.6,0.5 14.9,0.5 L18.5,0.5 C18.8,0.5 19.1,0.8 19.1,1.1 L19.1,22.8 C19.1,23.1 18.8,23.4 18.5,23.4 L14.9,23.4 C14.6,23.4 14.3,23.1 14.3,22.8 L14.3,13.7 C14.3,13.4 14,13.1 13.7,13.1 L5.9,13.1 C5.6,13.1 5.3,13.4 5.3,13.7 L5.3,22.8 C5.3,23.1 5,23.4 4.7,23.4 L1.1,23.4 C0.8,23.4 0.6,23.2 0.6,22.9 Z" id="Shape"></path>
                    <path d="M25.9,2.8 C27.8,0.9 30.1,0 33,0 C36.8,0 39.6,1.3 41.4,3.8 C42.2,5 42.7,6.2 42.9,7.4 C43,7.7 42.7,8.1 42.3,8.1 L38.5,8.1 C38.2,8.1 38,7.9 38,7.7 C37.7,6.8 37.4,6.1 36.9,5.6 C36,4.6 34.8,4.1 33.1,4.1 C31.4,4.1 30,4.8 29,6.2 C28,7.6 27.5,9.6 27.5,12.2 C27.5,14.8 28,16.7 29.1,18 C30.1,19.3 31.5,19.9 33.1,19.9 C34.8,19.9 36,19.3 36.9,18.2 C37.3,17.7 37.7,16.9 38,15.9 C38.1,15.7 38.3,15.5 38.5,15.5 L42.2,15.5 C42.6,15.5 42.8,15.8 42.8,16.2 C42.3,18.4 41.3,20.2 39.8,21.6 C38.1,23.2 35.9,24 33.3,24 C30,24 27.4,22.9 25.6,20.8 C23.7,18.7 22.8,15.7 22.8,12 C22.7,8.1 23.8,5 25.9,2.8 Z" id="Shape"></path>
                    <path d="M62.7,0.6 L68.5,0.6 C68.8,0.6 69.1,0.9 69.1,1.2 L69.1,22.9 C69.1,23.2 68.8,23.5 68.5,23.5 L65.2,23.5 C64.9,23.5 64.6,23.2 64.6,22.9 L64.6,8 C64.6,7.6 64.6,6.9 64.6,6.1 C64.6,5.3 64.6,4.7 64.6,4.2 L60.5,23 C60.4,23.3 60.2,23.4 59.9,23.4 L56.2,23.4 C55.9,23.4 55.7,23.2 55.6,23 L51.4,4.2 C51.4,4.6 51.4,5.3 51.4,6.1 C51.4,6.9 51.4,7.5 51.4,8 L51.4,22.9 C51.4,23.2 51.1,23.5 50.8,23.5 L47.5,23.5 C47.2,23.5 46.9,23.2 46.9,22.9 L46.9,1.1 C46.9,0.8 47.2,0.5 47.5,0.5 L53.4,0.5 C53.7,0.5 53.9,0.7 54,0.9 L58.1,18.4 L62.1,0.9 C62.2,0.8 62.5,0.6 62.7,0.6 Z" id="Shape"></path>
                </g>
            </g>
        </g>
    </g>
</svg>